<?xml version="1.0" encoding="UTF-8" standalone="no"?>
<svg
   xmlns:dc="http://purl.org/dc/elements/1.1/"
   xmlns:cc="http://creativecommons.org/ns#"
   xmlns:rdf="http://www.w3.org/1999/02/22-rdf-syntax-ns#"
   xmlns:svg="http://www.w3.org/2000/svg"
   xmlns="http://www.w3.org/2000/svg"
   version="1.1"
   height="600"
   width="600"
   id="asvg1SVG">
  <metadata
     id="metadata38">
    <rdf:RDF>
      <cc:Work
         rdf:about="">
        <dc:format>image/svg+xml</dc:format>
        <dc:type
           rdf:resource="http://purl.org/dc/dcmitype/StillImage" />
        <dc:title></dc:title>
      </cc:Work>
    </rdf:RDF>
  </metadata>
  <defs
     id="defs36" />
  <rect
     fill="white"
     stroke="none"
     height="600px"
     width="600px"
     y="0"
     x="0"
     id="brdBg_asvg1" />
  <path
     id="path4"
     fill="none"
     stroke="#ddd"
     shape-rendering="crispEdges"
     stroke-width="1"
     d=" M17.00,0 17.00,600.00 M73.60,0 73.60,600.00 M130.20,0 130.20,600.00 M186.80,0 186.80,600.00 M243.40,0 243.40,600.00 M300.00,0 300.00,600.00 M356.60,0 356.60,600.00 M413.20,0 413.20,600.00 M469.80,0 469.80,600.00 M526.40,0 526.40,600.00 M583.00,0 583.00,600.00 M0,583.00 600,583.00 M0,526.40 600,526.40 M0,469.80 600,469.80 M0,413.20 600,413.20 M0,356.60 600,356.60 M0,300.00 600,300.00 M0,243.40 600,243.40 M0,186.80 600,186.80 M0,130.20 600,130.20 M0,73.60 600,73.60 M0,17.00 600,17.00" />
  <path
     id="path6"
     fill="none"
     stroke="#165a71"
     shape-rendering="crispEdges"
     stroke-width="1"
     d="M0,583.00 600.00,583.00 M17.00,0 17.00,600.00 M73.60,586.38 73.60,579.63 M130.20,586.38 130.20,579.63 M186.80,586.38 186.80,579.63 M243.40,586.38 243.40,579.63 M300.00,586.38 300.00,579.63 M356.60,586.38 356.60,579.63 M413.20,586.38 413.20,579.63 M469.80,586.38 469.80,579.63 M526.40,586.38 526.40,579.63 M583.00,586.38 583.00,579.63 M20.38,526.40 13.63,526.40 M20.38,469.80 13.63,469.80 M20.38,413.20 13.63,413.20 M20.38,356.60 13.63,356.60 M20.38,300.00 13.63,300.00 M20.38,243.40 13.63,243.40 M20.38,186.80 13.63,186.80 M20.38,130.20 13.63,130.20 M20.38,73.60 13.63,73.60 M20.38,17.00 13.63,17.00" />
  <text
     text-anchor="middle"
     font-weight="normal"
     style="font-size:13.5px"
     class="intmath"
     y="596.50"
     x="73.60"
     id="asvg1SVG-text-1174">0.1</text>
  <text
     text-anchor="middle"
     font-weight="normal"
     style="font-size:13.5px"
     class="intmath"
     y="596.50"
     x="130.20"
     id="asvg1SVG-text-1175">0.2</text>
  <text
     text-anchor="middle"
     font-weight="normal"
     style="font-size:13.5px"
     class="intmath"
     y="596.50"
     x="186.80"
     id="asvg1SVG-text-1176">0.3</text>
  <text
     text-anchor="middle"
     font-weight="normal"
     style="font-size:13.5px"
     class="intmath"
     y="596.50"
     x="243.40"
     id="asvg1SVG-text-1177">0.4</text>
  <text
     text-anchor="middle"
     font-weight="normal"
     style="font-size:13.5px"
     class="intmath"
     y="596.50"
     x="300.00"
     id="asvg1SVG-text-1178">0.5</text>
  <text
     text-anchor="middle"
     font-weight="normal"
     style="font-size:13.5px"
     class="intmath"
     y="596.50"
     x="356.60"
     id="asvg1SVG-text-1179">0.6</text>
  <text
     text-anchor="middle"
     font-weight="normal"
     style="font-size:13.5px"
     class="intmath"
     y="596.50"
     x="413.20"
     id="asvg1SVG-text-1180">0.7</text>
  <text
     text-anchor="middle"
     font-weight="normal"
     style="font-size:13.5px"
     class="intmath"
     y="596.50"
     x="469.80"
     id="asvg1SVG-text-1181">0.8</text>
  <text
     text-anchor="middle"
     font-weight="normal"
     style="font-size:13.5px"
     class="intmath"
     y="596.50"
     x="526.40"
     id="asvg1SVG-text-1182">0.9</text>
  <text
     text-anchor="middle"
     font-weight="normal"
     style="font-size:13.5px"
     class="intmath"
     y="596.50"
     x="583.00"
     id="asvg1SVG-text-1183">1</text>
  <text
     text-anchor="end"
     font-weight="normal"
     style="font-size:13.5px"
     class="intmath"
     y="530.90"
     x="10.25"
     id="asvg1SVG-text-1184">0.1</text>
  <text
     text-anchor="end"
     font-weight="normal"
     style="font-size:13.5px"
     class="intmath"
     y="474.30"
     x="10.25"
     id="asvg1SVG-text-1185">0.2</text>
  <text
     text-anchor="end"
     font-weight="normal"
     style="font-size:13.5px"
     class="intmath"
     y="417.70"
     x="10.25"
     id="asvg1SVG-text-1186">0.3</text>
  <text
     text-anchor="end"
     font-weight="normal"
     style="font-size:13.5px"
     class="intmath"
     y="361.10"
     x="10.25"
     id="asvg1SVG-text-1187">0.4</text>
  <text
     text-anchor="end"
     font-weight="normal"
     style="font-size:13.5px"
     class="intmath"
     y="304.50"
     x="10.25"
     id="asvg1SVG-text-1188">0.5</text>
  <text
     text-anchor="end"
     font-weight="normal"
     style="font-size:13.5px"
     class="intmath"
     y="247.90"
     x="10.25"
     id="asvg1SVG-text-1189">0.6</text>
  <text
     text-anchor="end"
     font-weight="normal"
     style="font-size:13.5px"
     class="intmath"
     y="191.30"
     x="10.25"
     id="asvg1SVG-text-1190">0.7</text>
  <text
     text-anchor="end"
     font-weight="normal"
     style="font-size:13.5px"
     class="intmath"
     y="134.70"
     x="10.25"
     id="asvg1SVG-text-1191">0.8</text>
  <text
     text-anchor="end"
     font-weight="normal"
     style="font-size:13.5px"
     class="intmath"
     y="78.10"
     x="10.25"
     id="asvg1SVG-text-1192">0.9</text>
  <text
     text-anchor="end"
     font-weight="normal"
     style="font-size:13.5px"
     class="intmath"
     y="21.50"
     x="10.25"
     id="asvg1SVG-text-1193">1</text>
  <text
     text-anchor="middle"
     font-weight="normal"
     class="intmathItalic"
     style="font-size:16px"
     y="576.25"
     x="590.00"
     id="asvg1SVGxAxVbl">x</text>
  <text
     text-anchor="start"
     font-weight="normal"
     class="intmathItalic"
     style="font-size:16px"
     y="14.50"
     x="23.75"
     id="asvg1SVGyAxVbl">y</text>
  <path
     id="xaxisArr"
     fill="#555"
     stroke="#555"
     transform="rotate(90 600 583)"
     d="M 600 583 L 597 595 L 604 595 Z" />
  <path
     id="yaxisArr"
     fill="#555"
     stroke="#555"
     transform="rotate(0 17 0)"
     d="M 17 0 L 14 12 L 21 12 Z" />
  <path
     d="M17.00,583.00 18.13,579.73 19.26,576.47 20.40,573.22 21.53,569.97 22.66,566.73 23.79,563.51 24.92,560.31 26.06,557.13 27.19,553.97 28.32,550.84 29.45,547.74 30.58,544.68 31.72,541.64 32.85,538.65 33.98,535.69 35.11,532.78 36.24,529.91 37.38,527.10 38.51,524.33 39.64,521.61 40.77,518.96 41.90,516.35 43.04,513.81 44.17,511.33 45.30,508.91 46.43,506.56 47.56,504.27 48.70,502.05 49.83,499.90 50.96,497.83 52.09,495.82 53.22,493.89 54.36,492.04 55.49,490.26 56.62,488.56 57.75,486.93 58.88,485.39 60.02,483.92 61.15,482.54 62.28,481.23 63.41,480.01 64.54,478.86 65.68,477.80 66.81,476.81 67.94,475.91 69.07,475.08 70.20,474.34 71.34,473.67 72.47,473.08 73.60,472.57 74.73,472.14 75.86,471.78 77.00,471.49 78.13,471.28 79.26,471.14 80.39,471.07 81.52,471.07 82.66,471.14 83.79,471.27 84.92,471.47 86.05,471.73 87.18,472.05 88.32,472.42 89.45,472.86 90.58,473.34 91.71,473.88 92.84,474.47 93.98,475.10 95.11,475.77 96.24,476.49 97.37,477.25 98.50,478.04 99.64,478.87 100.77,479.73 101.90,480.61 103.03,481.52 104.16,482.45 105.30,483.40 106.43,484.37 107.56,485.35 108.69,486.34 109.82,487.33 110.96,488.33 112.09,489.33 113.22,490.33 114.35,491.33 115.48,492.31 116.62,493.29 117.75,494.25 118.88,495.20 120.01,496.12 121.14,497.02 122.28,497.90 123.41,498.74 124.54,499.56 125.67,500.34 126.80,501.08 127.94,501.79 129.07,502.45 130.20,503.07 131.33,503.64 132.46,504.16 133.60,504.63 134.73,505.04 135.86,505.40 136.99,505.70 138.12,505.94 139.26,506.11 140.39,506.22 141.52,506.27 142.65,506.25 143.78,506.15 144.92,505.99 146.05,505.75 147.18,505.45 148.31,505.06 149.44,504.60 150.58,504.06 151.71,503.45 152.84,502.76 153.97,501.99 155.10,501.13 156.24,500.20 157.37,499.19 158.50,498.10 159.63,496.93 160.76,495.68 161.90,494.34 163.03,492.93 164.16,491.44 165.29,489.87 166.42,488.22 167.56,486.49 168.69,484.69 169.82,482.81 170.95,480.85 172.08,478.82 173.22,476.72 174.35,474.55 175.48,472.31 176.61,470.00 177.74,467.63 178.88,465.19 180.01,462.68 181.14,460.12 182.27,457.50 183.40,454.82 184.54,452.09 185.67,449.30 186.80,446.47 187.93,443.59 189.06,440.66 190.20,437.69 191.33,434.68 192.46,431.64 193.59,428.56 194.72,425.45 195.86,422.31 196.99,419.14 198.12,415.96 199.25,412.75 200.38,409.52 201.52,406.28 202.65,403.03 203.78,399.77 204.91,396.51 206.04,393.25 207.18,389.98 208.31,386.72 209.44,383.47 210.57,380.22 211.70,376.99 212.84,373.78 213.97,370.58 215.10,367.41 216.23,364.26 217.36,361.14 218.50,358.05 219.63,354.99 220.76,351.97 221.89,348.99 223.02,346.05 224.16,343.15 225.29,340.30 226.42,337.50 227.55,334.75 228.68,332.06 229.82,329.42 230.95,326.83 232.08,324.31 233.21,321.85 234.34,319.45 235.48,317.12 236.61,314.86 237.74,312.66 238.87,310.54 240.00,308.48 241.14,306.51 242.27,304.60 243.40,302.77 244.53,301.02 245.66,299.34 246.80,297.74 247.93,296.23 249.06,294.79 250.19,293.43 251.32,292.15 252.46,290.95 253.59,289.83 254.72,288.79 255.85,287.83 256.98,286.96 258.12,286.16 259.25,285.44 260.38,284.80 261.51,284.24 262.64,283.75 263.78,283.34 264.91,283.01 266.04,282.75 267.17,282.56 268.30,282.44 269.44,282.40 270.57,282.42 271.70,282.51 272.83,282.66 273.96,282.88 275.10,283.16 276.23,283.50 277.36,283.89 278.49,284.35 279.62,284.85 280.76,285.40 281.89,286.00 283.02,286.65 284.15,287.34 285.28,288.07 286.42,288.84 287.55,289.65 288.68,290.48 289.81,291.35 290.94,292.24 292.08,293.16 293.21,294.10 294.34,295.05 295.47,296.02 296.60,297.01 297.74,298.00 298.87,299.00 300.00,300.00 301.13,301.00 302.26,302.00 303.40,302.99 304.53,303.97 305.66,304.95 306.79,305.90 307.92,306.84 309.06,307.76 310.19,308.65 311.32,309.52 312.45,310.35 313.58,311.16 314.72,311.93 315.85,312.66 316.98,313.35 318.11,314.00 319.24,314.60 320.38,315.15 321.51,315.65 322.64,316.11 323.77,316.50 324.90,316.84 326.04,317.12 327.17,317.34 328.30,317.49 329.43,317.58 330.56,317.60 331.70,317.56 332.83,317.44 333.96,317.25 335.09,316.99 336.22,316.66 337.36,316.25 338.49,315.76 339.62,315.20 340.75,314.56 341.88,313.84 343.02,313.04 344.15,312.17 345.28,311.21 346.41,310.17 347.54,309.05 348.68,307.85 349.81,306.57 350.94,305.21 352.07,303.77 353.20,302.26 354.34,300.66 355.47,298.98 356.60,297.23 357.73,295.40 358.86,293.50 360.00,291.52 361.13,289.46 362.26,287.34 363.39,285.14 364.52,282.88 365.66,280.55 366.79,278.15 367.92,275.69 369.05,273.17 370.18,270.59 371.32,267.95 372.45,265.25 373.58,262.50 374.71,259.70 375.84,256.85 376.98,253.95 378.11,251.01 379.24,248.03 380.37,245.01 381.50,241.95 382.64,238.86 383.77,235.74 384.90,232.59 386.03,229.42 387.16,226.22 388.30,223.01 389.43,219.78 390.56,216.53 391.69,213.28 392.82,210.02 393.96,206.76 395.09,203.49 396.22,200.23 397.35,196.97 398.48,193.72 399.62,190.48 400.75,187.25 401.88,184.05 403.01,180.86 404.14,177.69 405.28,174.55 406.41,171.44 407.54,168.36 408.67,165.32 409.80,162.31 410.94,159.34 412.07,156.41 413.20,153.53 414.33,150.70 415.46,147.91 416.60,145.18 417.73,142.50 418.86,139.88 419.99,137.32 421.12,134.82 422.26,132.38 423.39,130.00 424.52,127.69 425.65,125.45 426.78,123.28 427.92,121.18 429.05,119.15 430.18,117.20 431.31,115.32 432.44,113.51 433.58,111.78 434.71,110.13 435.84,108.56 436.97,107.07 438.10,105.66 439.24,104.33 440.37,103.07 441.50,101.90 442.63,100.81 443.76,99.80 444.90,98.87 446.03,98.01 447.16,97.24 448.29,96.55 449.42,95.94 450.56,95.40 451.69,94.94 452.82,94.55 453.95,94.25 455.08,94.01 456.22,93.85 457.35,93.75 458.48,93.73 459.61,93.78 460.74,93.89 461.88,94.06 463.01,94.30 464.14,94.60 465.27,94.96 466.40,95.37 467.54,95.84 468.67,96.36 469.80,96.93 470.93,97.55 472.06,98.21 473.20,98.92 474.33,99.66 475.46,100.44 476.59,101.26 477.72,102.10 478.86,102.98 479.99,103.88 481.12,104.80 482.25,105.75 483.38,106.71 484.52,107.68 485.65,108.67 486.78,109.67 487.91,110.67 489.04,111.67 490.18,112.67 491.31,113.66 492.44,114.65 493.57,115.63 494.70,116.60 495.84,117.55 496.97,118.48 498.10,119.39 499.23,120.27 500.36,121.13 501.50,121.96 502.63,122.75 503.76,123.51 504.89,124.22 506.02,124.90 507.16,125.53 508.29,126.12 509.42,126.66 510.55,127.14 511.68,127.58 512.82,127.95 513.95,128.27 515.08,128.53 516.21,128.73 517.34,128.86 518.48,128.93 519.61,128.93 520.74,128.86 521.87,128.72 523.00,128.51 524.14,128.22 525.27,127.86 526.40,127.43 527.53,126.92 528.66,126.33 529.80,125.66 530.93,124.92 532.06,124.09 533.19,123.19 534.32,122.20 535.46,121.14 536.59,119.99 537.72,118.77 538.85,117.46 539.98,116.08 541.12,114.61 542.25,113.07 543.38,111.44 544.51,109.74 545.64,107.96 546.78,106.11 547.91,104.18 549.04,102.17 550.17,100.10 551.30,97.95 552.44,95.73 553.57,93.44 554.70,91.09 555.83,88.67 556.96,86.19 558.10,83.65 559.23,81.05 560.36,78.39 561.49,75.67 562.62,72.90 563.76,70.09 564.89,67.22 566.02,64.31 567.15,61.35 568.28,58.36 569.42,55.33 570.55,52.26 571.68,49.16 572.81,46.03 573.94,42.87 575.08,39.69 576.21,36.49 577.34,33.27 578.47,30.03 579.60,26.79 580.74,23.53 581.87,20.27 583.00,17.00 "
     vector-effect="non-scaling-stroke"
     fill-opacity="1"
     fill="none"
     stroke-opacity="1"
     stroke-width="1.5"
     stroke="#165a71"
     id="asvg1SVG-plot-1194" />
  <path
     d="M17.00,583.00 18.13,581.87 19.26,580.74 20.40,579.60 21.53,578.47 22.66,577.34 23.79,576.21 24.92,575.08 26.06,573.94 27.19,572.81 28.32,571.68 29.45,570.55 30.58,569.42 31.72,568.28 32.85,567.15 33.98,566.02 35.11,564.89 36.24,563.76 37.38,562.62 38.51,561.49 39.64,560.36 40.77,559.23 41.90,558.10 43.04,556.96 44.17,555.83 45.30,554.70 46.43,553.57 47.56,552.44 48.70,551.30 49.83,550.17 50.96,549.04 52.09,547.91 53.22,546.78 54.36,545.64 55.49,544.51 56.62,543.38 57.75,542.25 58.88,541.12 60.02,539.98 61.15,538.85 62.28,537.72 63.41,536.59 64.54,535.46 65.68,534.32 66.81,533.19 67.94,532.06 69.07,530.93 70.20,529.80 71.34,528.66 72.47,527.53 73.60,526.40 74.73,525.27 75.86,524.14 77.00,523.00 78.13,521.87 79.26,520.74 80.39,519.61 81.52,518.48 82.66,517.34 83.79,516.21 84.92,515.08 86.05,513.95 87.18,512.82 88.32,511.68 89.45,510.55 90.58,509.42 91.71,508.29 92.84,507.16 93.98,506.02 95.11,504.89 96.24,503.76 97.37,502.63 98.50,501.50 99.64,500.36 100.77,499.23 101.90,498.10 103.03,496.97 104.16,495.84 105.30,494.70 106.43,493.57 107.56,492.44 108.69,491.31 109.82,490.18 110.96,489.04 112.09,487.91 113.22,486.78 114.35,485.65 115.48,484.52 116.62,483.38 117.75,482.25 118.88,481.12 120.01,479.99 121.14,478.86 122.28,477.72 123.41,476.59 124.54,475.46 125.67,474.33 126.80,473.20 127.94,472.06 129.07,470.93 130.20,469.80 131.33,468.67 132.46,467.54 133.60,466.40 134.73,465.27 135.86,464.14 136.99,463.01 138.12,461.88 139.26,460.74 140.39,459.61 141.52,458.48 142.65,457.35 143.78,456.22 144.92,455.08 146.05,453.95 147.18,452.82 148.31,451.69 149.44,450.56 150.58,449.42 151.71,448.29 152.84,447.16 153.97,446.03 155.10,444.90 156.24,443.76 157.37,442.63 158.50,441.50 159.63,440.37 160.76,439.24 161.90,438.10 163.03,436.97 164.16,435.84 165.29,434.71 166.42,433.58 167.56,432.44 168.69,431.31 169.82,430.18 170.95,429.05 172.08,427.92 173.22,426.78 174.35,425.65 175.48,424.52 176.61,423.39 177.74,422.26 178.88,421.12 180.01,419.99 181.14,418.86 182.27,417.73 183.40,416.60 184.54,415.46 185.67,414.33 186.80,413.20 187.93,412.07 189.06,410.94 190.20,409.80 191.33,408.67 192.46,407.54 193.59,406.41 194.72,405.28 195.86,404.14 196.99,403.01 198.12,401.88 199.25,400.75 200.38,399.62 201.52,398.48 202.65,397.35 203.78,396.22 204.91,395.09 206.04,393.96 207.18,392.82 208.31,391.69 209.44,390.56 210.57,389.43 211.70,388.30 212.84,387.16 213.97,386.03 215.10,384.90 216.23,383.77 217.36,382.64 218.50,381.50 219.63,380.37 220.76,379.24 221.89,378.11 223.02,376.98 224.16,375.84 225.29,374.71 226.42,373.58 227.55,372.45 228.68,371.32 229.82,370.18 230.95,369.05 232.08,367.92 233.21,366.79 234.34,365.66 235.48,364.52 236.61,363.39 237.74,362.26 238.87,361.13 240.00,360.00 241.14,358.86 242.27,357.73 243.40,356.60 244.53,355.47 245.66,354.34 246.80,353.20 247.93,352.07 249.06,350.94 250.19,349.81 251.32,348.68 252.46,347.54 253.59,346.41 254.72,345.28 255.85,344.15 256.98,343.02 258.12,341.88 259.25,340.75 260.38,339.62 261.51,338.49 262.64,337.36 263.78,336.22 264.91,335.09 266.04,333.96 267.17,332.83 268.30,331.70 269.44,330.56 270.57,329.43 271.70,328.30 272.83,327.17 273.96,326.04 275.10,324.90 276.23,323.77 277.36,322.64 278.49,321.51 279.62,320.38 280.76,319.24 281.89,318.11 283.02,316.98 284.15,315.85 285.28,314.72 286.42,313.58 287.55,312.45 288.68,311.32 289.81,310.19 290.94,309.06 292.08,307.92 293.21,306.79 294.34,305.66 295.47,304.53 296.60,303.40 297.74,302.26 298.87,301.13 300.00,300.00 301.13,298.87 302.26,297.74 303.40,296.60 304.53,295.47 305.66,294.34 306.79,293.21 307.92,292.08 309.06,290.94 310.19,289.81 311.32,288.68 312.45,287.55 313.58,286.42 314.72,285.28 315.85,284.15 316.98,283.02 318.11,281.89 319.24,280.76 320.38,279.62 321.51,278.49 322.64,277.36 323.77,276.23 324.90,275.10 326.04,273.96 327.17,272.83 328.30,271.70 329.43,270.57 330.56,269.44 331.70,268.30 332.83,267.17 333.96,266.04 335.09,264.91 336.22,263.78 337.36,262.64 338.49,261.51 339.62,260.38 340.75,259.25 341.88,258.12 343.02,256.98 344.15,255.85 345.28,254.72 346.41,253.59 347.54,252.46 348.68,251.32 349.81,250.19 350.94,249.06 352.07,247.93 353.20,246.80 354.34,245.66 355.47,244.53 356.60,243.40 357.73,242.27 358.86,241.14 360.00,240.00 361.13,238.87 362.26,237.74 363.39,236.61 364.52,235.48 365.66,234.34 366.79,233.21 367.92,232.08 369.05,230.95 370.18,229.82 371.32,228.68 372.45,227.55 373.58,226.42 374.71,225.29 375.84,224.16 376.98,223.02 378.11,221.89 379.24,220.76 380.37,219.63 381.50,218.50 382.64,217.36 383.77,216.23 384.90,215.10 386.03,213.97 387.16,212.84 388.30,211.70 389.43,210.57 390.56,209.44 391.69,208.31 392.82,207.18 393.96,206.04 395.09,204.91 396.22,203.78 397.35,202.65 398.48,201.52 399.62,200.38 400.75,199.25 401.88,198.12 403.01,196.99 404.14,195.86 405.28,194.72 406.41,193.59 407.54,192.46 408.67,191.33 409.80,190.20 410.94,189.06 412.07,187.93 413.20,186.80 414.33,185.67 415.46,184.54 416.60,183.40 417.73,182.27 418.86,181.14 419.99,180.01 421.12,178.88 422.26,177.74 423.39,176.61 424.52,175.48 425.65,174.35 426.78,173.22 427.92,172.08 429.05,170.95 430.18,169.82 431.31,168.69 432.44,167.56 433.58,166.42 434.71,165.29 435.84,164.16 436.97,163.03 438.10,161.90 439.24,160.76 440.37,159.63 441.50,158.50 442.63,157.37 443.76,156.24 444.90,155.10 446.03,153.97 447.16,152.84 448.29,151.71 449.42,150.58 450.56,149.44 451.69,148.31 452.82,147.18 453.95,146.05 455.08,144.92 456.22,143.78 457.35,142.65 458.48,141.52 459.61,140.39 460.74,139.26 461.88,138.12 463.01,136.99 464.14,135.86 465.27,134.73 466.40,133.60 467.54,132.46 468.67,131.33 469.80,130.20 470.93,129.07 472.06,127.94 473.20,126.80 474.33,125.67 475.46,124.54 476.59,123.41 477.72,122.28 478.86,121.14 479.99,120.01 481.12,118.88 482.25,117.75 483.38,116.62 484.52,115.48 485.65,114.35 486.78,113.22 487.91,112.09 489.04,110.96 490.18,109.82 491.31,108.69 492.44,107.56 493.57,106.43 494.70,105.30 495.84,104.16 496.97,103.03 498.10,101.90 499.23,100.77 500.36,99.64 501.50,98.50 502.63,97.37 503.76,96.24 504.89,95.11 506.02,93.98 507.16,92.84 508.29,91.71 509.42,90.58 510.55,89.45 511.68,88.32 512.82,87.18 513.95,86.05 515.08,84.92 516.21,83.79 517.34,82.66 518.48,81.52 519.61,80.39 520.74,79.26 521.87,78.13 523.00,77.00 524.14,75.86 525.27,74.73 526.40,73.60 527.53,72.47 528.66,71.34 529.80,70.20 530.93,69.07 532.06,67.94 533.19,66.81 534.32,65.68 535.46,64.54 536.59,63.41 537.72,62.28 538.85,61.15 539.98,60.02 541.12,58.88 542.25,57.75 543.38,56.62 544.51,55.49 545.64,54.36 546.78,53.22 547.91,52.09 549.04,50.96 550.17,49.83 551.30,48.70 552.44,47.56 553.57,46.43 554.70,45.30 555.83,44.17 556.96,43.04 558.10,41.90 559.23,40.77 560.36,39.64 561.49,38.51 562.62,37.38 563.76,36.24 564.89,35.11 566.02,33.98 567.15,32.85 568.28,31.72 569.42,30.58 570.55,29.45 571.68,28.32 572.81,27.19 573.94,26.06 575.08,24.92 576.21,23.79 577.34,22.66 578.47,21.53 579.60,20.40 580.74,19.26 581.87,18.13 583.00,17.00 "
     vector-effect="non-scaling-stroke"
     fill-opacity="1"
     fill="none"
     stroke-opacity="1"
     stroke-width="1.5"
     stroke="#cc00cc"
     id="asvg1SVG-plot-1195" />
</svg>
